<?xml version="1.0" encoding="utf-8"?>
<!-- Generator: Adobe Illustrator 27.5.0, SVG Export Plug-In . SVG Version: 6.00 Build 0)  -->
<svg version="1.1" xmlns="http://www.w3.org/2000/svg" xmlns:xlink="http://www.w3.org/1999/xlink" x="0px" y="0px"
	 viewBox="0 0 499.999 500" style="enable-background:new 0 0 499.999 500;" xml:space="preserve">
<g id="BACKGROUND">
</g>
<g id="OBJECTS">
	<g id="XMLID_51_">
		<g id="XMLID_54_">
			<path id="XMLID_101_" style="fill:#FFE5CA;" d="M369.752,142.094c-26.327-26.779-60.159-43.652-96.818-48.607
				c0.96-1.33,1.903-2.701,2.822-4.105c1.566-2.391,1.966-5.362,1.087-8.082c-0.879-2.72-2.941-4.896-5.61-5.919
				c-0.481-0.184-3.089-1.145-7.211-1.96c-0.609-0.12-1.22-0.179-1.824-0.18c-0.57-0.195-1.167-0.337-1.784-0.421
				c-2.498-0.34-5.039-0.528-7.55-0.56c-0.039-0.001-0.079-0.001-0.119-0.001c-0.601,0-1.192,0.057-1.768,0.166
				c-0.463-0.07-0.934-0.106-1.411-0.106c-0.16,0-0.319,0.004-0.479,0.012c-1.861,0.094-3.723,0.277-5.535,0.544
				c-0.727,0.107-1.429,0.296-2.096,0.56c-0.022,0-0.045,0-0.067,0c-0.695,0-1.395,0.077-2.09,0.234
				c-1.52,0.345-3.02,0.752-4.497,1.222c0.011-0.312,0.006-0.626-0.014-0.941c-0.34-5.237-1.364-10.664-3.043-16.13
				c-0.318-1.035-0.806-1.994-1.434-2.843c-0.036-1.047-0.246-2.094-0.637-3.099c-1.445-3.716-3.203-7.515-5.227-11.293
				c-1.35-2.52-3.767-4.293-6.575-4.824c-0.583-0.11-1.171-0.164-1.755-0.164c-2.227,0-4.404,0.788-6.127,2.256
				c-0.431,0.367-4.333,3.761-8.46,9.717c-0.415,0.599-0.758,1.242-1.023,1.914c-0.497,0.517-0.938,1.094-1.312,1.724
				c-1.249,2.103-2.376,4.294-3.349,6.512c-0.411,0.937-0.662,1.922-0.755,2.917c-0.585,0.802-1.051,1.708-1.367,2.7
				c-0.675,2.117-1.222,4.273-1.636,6.44c-1.215-0.587-2.455-1.104-3.71-1.545c-0.57-0.2-1.149-0.343-1.73-0.43
				c-0.524-0.238-1.075-0.43-1.649-0.572c-2.32-0.572-4.723-0.93-7.141-1.064c-0.175-0.01-0.351-0.014-0.525-0.014
				c-0.466,0-0.927,0.034-1.38,0.101c-0.519-0.088-1.046-0.133-1.578-0.133c-0.106,0-0.213,0.002-0.32,0.005
				c-1.478,0.05-3.033,0.183-4.622,0.395c-0.383,0.051-0.759,0.125-1.127,0.221c-0.387,0.021-0.775,0.066-1.163,0.136
				c-2.959,0.533-6.006,1.343-9.057,2.408c-0.473,0.165-0.928,0.366-1.359,0.597c-0.47,0.107-0.937,0.251-1.395,0.432
				c-0.722,0.286-1.38,0.558-2.012,0.83c-0.28,0.121-0.552,0.254-0.814,0.398c-0.278,0.097-0.553,0.208-0.825,0.332
				c-1.078,0.494-2.186,1.031-3.292,1.598c-0.322,0.165-0.632,0.346-0.927,0.543c-0.337,0.135-0.668,0.291-0.992,0.467
				c-8.056,4.377-13.558,8.974-13.788,9.168c-3.35,2.816-4.328,7.563-2.364,11.474c1.63,3.246,4.932,5.21,8.442,5.21
				c0.72,0,1.448-0.083,2.172-0.254c1.549-0.365,3.097-0.676,4.641-0.931c-2.618,2.02-5.154,4.312-7.577,6.849
				c-0.677,0.709-1.233,1.512-1.656,2.377c-0.795,0.515-1.518,1.153-2.138,1.902c-2.891,3.49-5.683,7.434-8.353,11.796
				c-1.63-1.192-3.587-1.823-5.58-1.823c-0.671,0-1.345,0.071-2.012,0.217c-2.793,0.609-5.16,2.449-6.439,5.005
				c-0.311,0.622-1.916,3.982-2.974,9.082c-0.108,0.519-0.171,1.044-0.19,1.57c-0.155,0.499-0.27,1.014-0.341,1.541
				c-0.24,1.773-0.372,3.57-0.394,5.343c-0.009,0.743,0.07,1.477,0.23,2.188c-0.103,0.72-0.123,1.463-0.053,2.215
				c0.039,0.423,0.085,0.846,0.138,1.267c-0.247,0.032-0.491,0.074-0.732,0.124c-0.438,0.009-0.879,0.048-1.322,0.119
				c-1.792,0.289-3.576,0.751-5.304,1.374c-0.454,0.164-0.891,0.36-1.308,0.587c-0.454,0.133-0.901,0.3-1.336,0.502
				c-1.005,0.467-2.034,1.011-3.059,1.618c-0.244,0.145-0.48,0.299-0.708,0.463c-0.254,0.135-0.504,0.282-0.748,0.442
				c-1.845,1.208-3.667,2.624-5.414,4.21c-0.269,0.244-0.521,0.5-0.756,0.769c-0.273,0.215-0.536,0.448-0.788,0.696
				c-0.375,0.371-0.744,0.744-1.103,1.119c-0.152,0.159-0.296,0.321-0.435,0.487c-0.153,0.146-0.301,0.298-0.445,0.456
				c-0.574,0.629-1.155,1.294-1.727,1.978c-0.165,0.197-0.32,0.399-0.466,0.606c-0.179,0.19-0.35,0.388-0.514,0.594
				c-4.006,5.038-6.287,9.443-6.534,9.929c-1.983,3.901-1.029,8.653,2.307,11.485c1.758,1.493,3.935,2.247,6.118,2.247
				c0.152,0,0.304-0.004,0.456-0.011c-0.109,0.394-0.192,0.792-0.248,1.194c-0.328,0.59-0.595,1.22-0.792,1.882
				c-1.77,5.924-2.835,12.772-3.165,20.353c-0.187,4.299,2.553,8.172,6.649,9.438c-2.907,12.438-4.371,25.233-4.371,38.291
				c0,22.633,4.435,44.594,13.181,65.272c8.446,19.969,20.535,37.9,35.932,53.297c15.396,15.397,33.328,27.486,53.297,35.932
				c20.679,8.746,42.64,13.181,65.272,13.181s44.594-4.435,65.273-13.181c19.969-8.446,37.9-20.535,53.297-35.932
				c15.397-15.397,27.486-33.328,35.932-53.297c8.746-20.679,13.181-42.64,13.181-65.272
				C417.849,215.385,400.768,173.642,369.752,142.094z"/>
			<g id="XMLID_67_">
				<path id="XMLID_99_" style="fill:#0079C0;" d="M408.277,253.662c0.027,0.738,0.059,1.474,0.076,2.214
					c-22.4-2.042-47.442-3.13-71.492-3.13c-15.937,0-31.567,0.478-46.792,1.394c2.289-2.251,2.568-5.16-1.189-9.153
					c-2.177-2.313-5.264-3.538-8.327-4.378c-11.23-3.079-24.176-2.236-33.185-9.615c-1.25-1.024-2.488-2.517-2.079-4.081
					c0.469-1.79,2.687-2.358,4.523-2.586c13.076-1.625,26.279-2.235,39.449-1.823c1.657-7.519-9.486-11.408-12.06-18.663
					c-2.835-7.99,5.749-16.407,3.765-24.649c-0.434-1.803-1.372-3.631-0.872-5.416c0.913-3.263,5.354-3.478,8.742-3.438
					c10.108,0.12,20.21-3.744,27.659-10.579c-1.265-4.282-7.11-4.49-11.575-4.448c-4.465,0.042-10.43-2.557-9.214-6.853
					c1.046-3.696,6.668-4.233,8.143-7.779c1.874-4.504-4.23-8.043-9.04-8.859c-7.868-1.334-15.898-1.713-23.857-1.128
					c-2.196-1.943-0.266-5.857,2.489-6.859s5.807-0.314,8.734-0.495c2.927-0.182,6.29-1.932,6.332-4.864
					c0.056-4.029-5.68-5.379-7.56-8.943c-0.605-1.146-0.179-3.307,0.361-5.061c0.958,0.191-19.467-3.071-31.141-3.071
					c-18.383,0-36.028,3.145-52.441,8.909c0.897-0.315,1.797-0.624,2.701-0.924c4.906,0.022,9.813,0.045,14.719,0.067
					c6.128,0.028,14.301,1.938,14.378,8.065c-16.193,3.208-32.105,7.831-47.496,13.8c1.702,3.856,6.955,4.185,11.162,3.919
					c10.299-0.651,20.597-1.302,30.896-1.953c1.685-0.106,3.46-0.196,4.972,0.555c4.412,2.19,2.928,9.122-0.546,12.614
					c-8.369,8.412-21.82,7.925-33.24,11.15c-1.643,0.464-3.368,1.089-4.382,2.463c-1.686,2.286-0.749,5.664-2.092,8.167
					c-2.859,5.327-13.974,4.029-13.778,10.072c0.057,1.771,1.321,3.321,1.443,5.089c0.268,3.893-4.639,5.95-6.359,9.453
					c-2.69,5.479,3.729,11.512,9.808,12.057c6.079,0.545,12.11-1.9,18.201-1.508c1.337,1.973,0.351,4.83-1.499,6.332
					c-1.851,1.502-4.298,1.993-6.64,2.436c-7.41,1.403-14.82,2.806-22.23,4.209c-3.055,0.578-6.248,1.219-8.662,3.179
					c-2.414,1.96-3.699,5.688-1.954,8.262c6.978,0.993,14.098-0.361,21.117,0.27c7.02,0.631,14.63,4.094,16.719,10.825
					c0.788,2.541,0.678,5.212,0.036,7.808c1.319,6.024,0.405,13.728,1.348,19.502c-40.082,8.284-74.13,19.999-99.131,34.055
					c0.044,0.167,0.09,0.333,0.135,0.5c0.388,1.445,0.79,2.884,1.218,4.311c19.531,65.235,80.006,112.783,151.596,112.783
					c87.39,0,158.233-70.843,158.233-158.233C408.4,257.632,408.35,255.644,408.277,253.662z"/>
			</g>
		</g>
		<g id="XMLID_65_">
			<g id="XMLID_42_">
				<path id="XMLID_53_" style="fill:#FFE5CA;" d="M100.093,309.904c0.003,0.001,0.005,0.002,0.008,0.002
					c-0.527-1.574-1.03-3.159-1.509-4.755C99.07,306.746,99.566,308.332,100.093,309.904z"/>
			</g>
			<g id="XMLID_52_">
				<polygon id="XMLID_58_" style="fill:#FFE5CA;" points="406.792,282.187 406.793,282.187 406.793,282.185 				"/>
				<path id="XMLID_60_" style="fill:#FFE5CA;" d="M407.983,271.103c0.008-0.106,0.013-0.213,0.02-0.319
					C407.996,270.889,407.991,270.996,407.983,271.103z"/>
				<path id="XMLID_81_" style="fill:#FFE5CA;" d="M408.261,266.012c0.016-0.397,0.032-0.793,0.045-1.191
					C408.293,265.219,408.277,265.615,408.261,266.012z"/>
			</g>
		</g>
		<g id="XMLID_49_">
			<circle id="XMLID_31_" style="fill:#FAAE4C;" cx="253.1" cy="231.295" r="67.505"/>
			<g id="XMLID_30_">
				<g>
					<defs>
						<path id="SVGID_1_" d="M97.213,300.273c17.941,67.695,79.616,117.591,152.954,117.591c87.39,0,158.233-70.843,158.233-158.233
							c0-1.202-0.019-2.399-0.046-3.594c-22.849-2.149-46.805-3.292-71.494-3.292C236.409,252.746,148.087,271.671,97.213,300.273z"
							/>
					</defs>
					<use xlink:href="#SVGID_1_"  style="overflow:visible;fill:#0079C0;"/>
					<clipPath id="SVGID_00000055704569505375911890000013428679524706197661_">
						<use xlink:href="#SVGID_1_"  style="overflow:visible;"/>
					</clipPath>
					<path style="clip-path:url(#SVGID_00000055704569505375911890000013428679524706197661_);fill:#098DCE;" d="M296.122,246.005
						c-18.14,9.571-1.616,10.907,12.222,13.066c12.998,2.028,30.016,6.942,0.192,13.493c-15.425,3.388,15.608,13.586,35.324,15.941
						c13.386,1.599,25.5,7,11,14.5c-15.968,8.259-5.5,14.554,22.5,14.554c18.46,0-11.375,34.078-26.895,38.804
						c-31.932,9.725-70.486,12.792-103.699,11.753c-30.833-0.964-65.877-7.073-90.813-26.608
						c-25.214-19.753-30.559-52.461-5.598-74.561c22.547-19.963,54.834-31.414,84.208-35.769
						c15.396-2.282,28.699-3.844,42.098,3.618C281.15,237.296,307.934,239.773,296.122,246.005z"/>
				</g>
			</g>
			<path id="XMLID_56_" style="fill:#0A3454;" d="M408.354,256.038c-0.912-40.898-17.336-77.97-43.628-105.556
				c-23.681,8.623-39.944,35.165-55.908,38.017c-19.492,3.482-25.633,17.078-30.035,27.651
				c-4.402,10.572-15.116,13.825-32.797,20.331c-13.128,4.83-17.736,15.934-20.123,24.431c34.12-5.257,71.626-8.166,110.998-8.166
				C361.55,252.746,385.506,253.89,408.354,256.038z"/>
			<g id="XMLID_32_">
				<path id="XMLID_37_" style="fill:#0D3B6C;" d="M388.78,335.988c-11.184-0.57-25.12,1.974-37.281,3.776
					c-21.958,3.253-41.701,0.024-42.68-4.986c-0.98-5.01,12.431-3.049,26.541-8.321c8.405-3.14-0.126-15.158-0.126-15.158
					c-14.639-21.145-69.447-28.448-89.248-46.356s-54.316-17.905-65.271-27.651c-10.955-9.746-30.09-18.705-46.356-23.584
					c-9.419-2.826-19.385-9.739-30.211-15.13c-7.865,18.787-12.214,39.411-12.214,61.052c0,87.39,70.843,158.233,158.233,158.233
					C309.866,417.865,361.835,384.8,388.78,335.988z"/>
				<g id="XMLID_50_">
					<path id="XMLID_40_" style="fill:#0A3454;" d="M395.281,322.787c-22.174-0.997-50.182,10.824-61.288,12.518
						c-15.002,2.289-42.697,0.596-65.221-15.635c-22.523-16.231-78.854-32.813-94.352-37.965
						c-15.499-5.151-36.841-24.421-44.373-34.388c-6.256-8.279-21.353-10.564-36.209-12.267c-1.25,8.011-1.903,16.22-1.903,24.581
						c0,87.39,70.843,158.233,158.233,158.233C315.104,417.865,370.894,378.743,395.281,322.787z"/>
					<path id="XMLID_44_" style="fill:#0A3454;" d="M258.179,148.828l7.305-1.091c-0.888-4.712-2.199-8.826-3.825-12.434h-3.48
						l2.916-1.215c-0.678-1.393-1.406-2.702-2.177-3.937h-4.603l1.909-3.817c-3.904-4.875-8.567-8.277-13.428-10.624l-3.873-1.64
						c-1.972-0.729-3.951-1.304-5.901-1.759c0.204-0.053,0.406-0.101,0.612-0.158l0.686-2.419l2.477,1.42
						c2.029-0.726,4.112-1.636,6.233-2.763l3.332-1.941c3.615-2.287,7.309-5.234,10.998-9.011l-0.667-4.776l4.429,0.622
						c2.262-2.682,4.512-5.693,6.731-9.079c0,0-2.125-0.815-5.663-1.514l-3.1,5.87l0.051-6.378
						c-1.904-0.259-4.056-0.445-6.393-0.474l-3.182,0.06c-1.494,0.076-3.043,0.22-4.635,0.455l-1.303,3.498l-2.236-2.837
						c-4.884,1.108-10.05,3.115-15.132,6.499l-0.625,3.697l-2.425-0.904c0.392-1.186,0.76-2.408,1.065-3.709l0.637-3.255
						c0.334-2.129,0.533-4.394,0.558-6.795l-3.612-3.868l3.503,0.013c-0.278-4.269-1.097-8.922-2.646-13.969l-4.512-1.701
						l2.667-3.591c-1.271-3.27-2.838-6.687-4.749-10.256c0,0-3.276,2.79-6.82,7.905l-0.227,5.491l-1.751-2.41
						c-0.985,1.658-1.945,3.489-2.821,5.484l-1.773,4.69c-0.784,2.459-1.405,5.105-1.774,7.93l2.096,4.129l-2.432-0.296
						c-0.037,0.834-0.048,1.683-0.038,2.544l0.204,3.816c0.25,2.644,0.744,5.401,1.516,8.257c-1.356-2.383-2.797-4.472-4.309-6.289
						l-1.899,2.713l0.746-4.031c-0.955-1.04-1.933-1.984-2.934-2.83l-3.628-2.615c-1.642-0.996-3.323-1.788-5.031-2.389
						l-2.508,3.464v-4.206c-1.787-0.441-3.593-0.703-5.403-0.804l-2.961-0.031c-1.235,0.042-2.467,0.154-3.691,0.317l-0.901,2.149
						l-0.965-1.859c-2.608,0.47-5.165,1.174-7.619,2.03l-2.383,0.891c-0.594,0.235-1.181,0.477-1.759,0.725l-1.443,0.642
						c-1.004,0.46-1.977,0.935-2.919,1.417l0.965,2.82l-2.68-1.918c-7.31,3.972-12.219,8.098-12.219,8.098
						c29.335-6.922,50.844,5.067,62.164,14.126c-4.28-2.489-9.563-4.911-15.481-6.246l-1.411,4.436l-2.73-5.171
						c-5.355-0.68-11.119-0.368-17.048,1.593l-0.479,4.241l-3.86-2.508c-1.319,0.616-2.643,1.317-3.971,2.116l-1.135,0.712
						c-3.33,2.14-6.67,4.875-9.982,8.342l5.532,4.895l-8.882-1.113c-4.597,5.549-9.107,12.594-13.422,21.409l-2.797,0.115
						l0.716-2.962c-1.668-1.712-3.56-3.438-5.708-5.167c0,0-1.312,2.622-2.173,6.773l1.32,3.504l-1.74-1.046
						c-0.176,1.302-0.291,2.706-0.309,4.19l0.137,3.413c0.163,1.751,0.478,3.576,0.998,5.445l2.414,2.031l-1.604,0.462
						c0.199,0.533,0.418,1.069,0.653,1.605l1.144,2.339c0.861,1.592,1.904,3.189,3.149,4.775c-1.485-1.134-2.944-2.06-4.376-2.797
						l-0.469,2.207l-0.605-2.726c-0.876-0.398-1.741-0.73-2.593-0.994l-2.971-0.674c-1.295-0.188-2.56-0.237-3.791-0.159
						l-0.651,2.84l-1.119-2.637c-1.238,0.2-2.441,0.515-3.602,0.934l-0.523,3.93l-1.342-3.161c-0.764,0.355-1.506,0.753-2.23,1.181
						l-1.093,0.679c-1.51,0.989-2.927,2.111-4.238,3.301l0.932,2.196l-2.189-1.002c-0.31,0.306-0.614,0.613-0.91,0.923l-0.734,0.787
						c-0.507,0.556-0.991,1.113-1.453,1.666l1.356,1.512l-2.191-0.49c-3.527,4.437-5.507,8.331-5.507,8.331
						c16.554-12.149,33.234-10.356,42.744-7.688c-3.346-0.422-7.305-0.534-11.371,0.204l0.296,3.158l-3.089-2.516
						c-3.539,0.999-7.071,2.729-10.267,5.537l0.828,2.787l-3.088-0.545c-0.663,0.738-1.307,1.529-1.927,2.384l-0.522,0.748
						c-1.519,2.228-2.885,4.833-4.039,7.889l4.772,1.597l-5.867,1.666c-1.48,4.953-2.467,10.906-2.778,18.058
						c0,0,2.449-4.309,7.202-10.175l-0.49-3.652l2.285,1.496c2.051-2.398,4.444-4.98,7.172-7.588l1.635-1.529
						c0.939-0.858,1.915-1.716,2.926-2.567l1.031-0.856c2.521-2.062,5.253-4.076,8.192-5.959l-1.191-3.163l3.799,1.562
						c2.858-1.682,5.909-3.215,9.122-4.562c-0.81,0.865-1.788,2.033-2.774,3.514l1.217,2.868l-3.034,0.281
						c-0.974,1.965-1.835,4.274-2.393,6.925l1.25,1.171l-1.634,1.056c-0.195,1.455-0.295,3-0.275,4.636l2.52,2.579l-2.386,0.045
						c0.255,2.904,0.884,6.06,2.018,9.474l3.099,1.089l-1.761,2.487c0.916,2.208,2.036,4.511,3.393,6.912
						c0,0,8.65-7.711,9.905-20.297c3.802,16.05,8.067,38.352,10.298,64.457c-1.06-1.123-2.016-2.4-2.867-3.664
						c-2.392-3.551-4.89-7.553-8.836-8.727c3.403,7.071,7.53,13.744,12.275,19.87c0.021,0.309,0.042,0.617,0.062,0.927
						c-3.773-2.928-7.654-5.74-12.005-7.495c1.171,3.009,2.343,6.018,3.514,9.027c-1.15-0.906-2.547-1.449-3.973-1.543
						c1.473,2.668,3.185,5.185,5.107,7.504c-3.945-3.161-8.97-4.749-13.891-4.389c3.371,3.641,6.841,7.358,11.191,9.512
						c5.431,2.689,11.649,2.665,17.634,2.592c11.476-0.141,22.952-0.283,34.427-0.424c2.628-0.032,5.329-0.08,7.763-1.14
						c2.434-1.06,4.573-3.383,4.72-6.186c-3.573,3.076-8.231,4.677-12.813,4.404c1.802-1.303,3.605-2.605,5.407-3.908
						c-2.378,1.109-4.959,1.721-7.554,1.791c5.591-3.937,10.888-8.351,15.824-13.186c-5.871,1.482-11.54,3.877-16.772,7.085
						c1.26-2.888,2.323-5.875,3.176-8.928c-2.406,0.687-4.812,1.375-7.218,2.062c1.623-4.524,2.541-9.335,2.705-14.176
						c-0.983,0.541-1.895,1.165-2.772,1.83c4.864-52.566,17.109-97.02,25.305-122.239c-0.043,2.555,0.143,5.323,0.666,8.259
						l2.345,0.907l-1.643,2.335c0.535,2.087,1.248,4.246,2.175,6.461l1.625,3.498c1.943,3.812,4.536,7.761,7.955,11.784l4.817-0.222
						l-1.029,4.353c2.461,2.501,5.251,5.02,8.418,7.541c0,0,1.905-3.858,3.137-9.958l-1.964-5.133l2.562,1.521
						c0.249-1.912,0.407-3.974,0.422-6.153l-4.868-4.016l4.641-0.993c-0.253-2.568-0.729-5.245-1.507-7.985l-1.208-3.653
						c-0.296-0.781-0.621-1.565-0.971-2.352l-1.697-3.425c-2.22-4.054-5.236-8.129-9.254-12.09l0.17-0.164
						c0.29,0.243,0.585,0.483,0.872,0.727l3.361,2.98c3.768,3.472,7.202,7.079,10.321,10.704l2.835-0.804l-1.563,2.305
						c1.244,1.489,2.436,2.977,3.575,4.458h3.462l-1.489,2.627c3.277,4.465,6.079,8.808,8.431,12.798l3.684-1.579l-1.64,5.154
						c5.373,9.693,7.814,16.547,7.814,16.547c1.376-10.417,1.469-19.273,0.593-26.811L258.179,148.828z M144.84,175.63
						c0.09,0.024,0.178,0.05,0.268,0.074l0.004,0.018C145.021,175.691,144.932,175.66,144.84,175.63z M157.692,203.595l2.961-1.421
						l0.514,3.004c2.209,0.913,4.629,1.75,7.286,2.489c0,0,0.168-2.927-0.683-7.08l-2.598-2.697l2.012,0.272
						c-0.353-1.265-0.803-2.601-1.373-3.971l-4.122-1.223l2.646-1.858c-0.842-1.543-1.853-3.095-3.071-4.607l-1.73-1.969
						c-0.393-0.411-0.806-0.816-1.235-1.216l-1.975-1.696c-2.469-1.95-5.457-3.693-9.027-5.107l0.068-0.16
						c0.246,0.075,0.495,0.147,0.74,0.224l2.901,0.974c3.287,1.174,6.401,2.522,9.321,3.965l1.197,0.602
						c1.176,0.602,2.32,1.219,3.428,1.844l2.171-0.922l-0.234,2.044c3.244,1.928,6.157,3.906,8.694,5.782l1.89-1.971l0.344,3.669
						c0.816,0.637,1.578,1.254,2.294,1.846c-5.065,21.967-8.803,42.957-11.363,59.204c-0.541-1.189-1.082-2.379-1.623-3.568
						c-0.715,2.156-1.43,4.311-2.146,6.467c-0.674-1.625-1.627-3.134-2.804-4.44c-0.258-0.287-0.772-0.545-0.962-0.208
						c0.209,1.666,0.418,3.332,0.628,4.998c-2.682-17.167-7.028-39.651-13.635-60.296l3.013,0.035l-1.656,1.719
						C151.8,200.196,154.477,201.983,157.692,203.595z M199.142,116.191v4.573l-4.26-1.36c-2.443,2.097-4.93,4.723-7.205,7.984
						l1.017,2.3l-2.813,0.489c-1.098,1.855-2.12,3.885-3.031,6.107l-1.324,3.622c-1.321,4.069-2.281,8.695-2.707,13.958l3.563,3.249
						l-3.805,2.35c-0.028,3.508,0.164,7.263,0.62,11.285c0,0,3.397-1.15,7.934-3.97c-1.866,6.665-3.607,13.382-5.226,20.053
						c-0.505-1.023-1.019-2.01-1.547-2.939l-6.091-0.305l4.291-2.629c-1.811-2.719-3.728-4.949-5.709-6.779l-0.677-0.612
						c-0.796-0.693-1.601-1.32-2.413-1.889l-2.887,1.225l0.181-2.902c-3.746-2.018-7.576-2.91-11.249-3.088l-2.444,3.146
						l-0.421-3.143c-1.436,0.068-2.835,0.235-4.185,0.471c0.119-0.092,0.238-0.17,0.357-0.265l1.717-1.469
						c1.079-0.995,2.143-2.12,3.173-3.392l-0.292-3.594l1.865,1.49c1.658-2.397,3.19-5.228,4.498-8.578l-1.689-2.817l2.943-0.789
						c0.705-2.284,1.315-4.771,1.804-7.485c0,0-1.549,0.055-3.954,0.558l-0.381,4.506l-1.666-4.013
						c-1.263,0.344-2.662,0.801-4.135,1.404l-1.98,0.885c-0.917,0.445-1.849,0.948-2.785,1.519l0.114,2.541l-2.157-1.184
						c-2.768,1.995-5.473,4.628-7.759,8.104l-1.169,2.563c-0.07-0.848-0.164-1.712-0.319-2.609l-0.467-2.211
						c-0.357-1.424-0.835-2.897-1.459-4.41l-3.295-1.464l2.201-0.924c-1.254-2.491-2.918-5.07-5.086-7.699
						c2.291-1.612,7.191-4.885,14.102-8.558l1.433-5.215l2.229,3.331c4.146-2.064,8.861-4.18,14.042-6.139l3.086-1.128
						c1.762-0.621,3.572-1.22,5.426-1.79l-0.055-2.784l1.939,2.219c4.59-1.341,9.435-2.494,14.486-3.353l0.204-4.958l4.238,4.29
						c4.843-0.636,9.855-0.978,14.988-0.953C203.354,113.717,201.344,114.741,199.142,116.191z"/>
				</g>
			</g>
		</g>
		<g id="XMLID_55_">
			<path id="XMLID_71_" style="fill:#FAAE4C;" d="M161.328,147.972l-2.943,0.789l1.023,1.707
				c7.524-6.266,15.705-11.767,24.421-16.39c0.647-1.377,1.332-2.681,2.054-3.901l2.813-0.489l-0.827-1.869
				c-8.961,4.252-17.423,9.388-25.27,15.301C162.22,144.829,161.798,146.45,161.328,147.972z"/>
			<path id="XMLID_76_" style="fill:#FAAE4C;" d="M131.331,175.32c-0.032,0.014-0.063,0.028-0.096,0.042
				c-0.065,0.092-0.127,0.185-0.192,0.277C131.139,175.534,131.239,175.418,131.331,175.32z"/>
			<path id="XMLID_77_" style="fill:#FAAE4C;" d="M128.672,179.104c-0.632,0.95-1.253,1.907-1.862,2.872l2.965-0.275
				L128.672,179.104z"/>
			<path id="XMLID_89_" style="fill:#FAAE4C;" d="M250.167,113.82c-3.801,0-7.568,0.147-11.296,0.434l-1.069,3.89
				c0.249-0.022,0.498-0.046,0.748-0.067l4.245-2.368c1.202,0.581,2.392,1.227,3.562,1.943c1.266-0.034,2.536-0.052,3.81-0.052
				c78.317,0,142.032,63.715,142.032,142.032s-63.715,142.033-142.032,142.033c-78.317,0-142.032-63.716-142.032-142.033
				c0-23.259,5.62-45.229,15.572-64.626c0.015-1.349,0.093-2.65,0.257-3.872l1.634-1.055l-1.25-1.171
				c0.523-2.483,1.316-4.653,2.214-6.535c-14.062,22.416-22.207,48.902-22.207,77.26c0,80.401,65.411,145.813,145.812,145.813
				c80.401,0,145.812-65.411,145.812-145.813C395.979,179.231,330.568,113.82,250.167,113.82z"/>
		</g>
		<g>
			<g id="XMLID_33_">
				<g id="XMLID_41_">
					
						<text transform="matrix(1 0 0 1 205.6182 322.9793)" style="fill:#FFE5CA; font-family:'Montserrat-Black'; font-size:20.0239px;">TIME TO</text>
				</g>
				<g id="XMLID_59_">
					
						<text transform="matrix(1 0 0 1 158.8057 366.7742)" style="fill:#FFE5CA; font-family:'Montserrat-Bold'; font-size:44.0558px;">TRAVEL</text>
				</g>
			</g>
			<rect id="XMLID_68_" x="171.163" y="314.661" style="fill:#FFE5CA;" width="29.782" height="3.103"/>
			<rect id="XMLID_70_" x="298.431" y="314.661" style="fill:#FFE5CA;" width="29.532" height="3.103"/>
		</g>
	</g>
</g>
<g id="DESIGNED_BY_FREEPIK">
	<g id="XMLID_1_">
		<g id="XMLID_319_">
			<g id="XMLID_338_">
				<path id="XMLID_346_" style="fill:#1D262D;" d="M260.104,465.465c-0.433,0.443-0.804,0.932-1.108,1.453l-0.465-0.241
					c-0.067-0.297-0.35-0.502-0.659-0.466c-0.331,0.039-0.567,0.339-0.529,0.67c0.039,0.331,0.339,0.567,0.67,0.528
					c0.065-0.007,0.127-0.025,0.184-0.052l0.451,0.234c-0.251,0.554-0.433,1.139-0.539,1.743l0.747,0.132
					c0.23-1.306,0.85-2.507,1.792-3.473L260.104,465.465z"/>
				<path id="XMLID_345_" style="fill:#1D262D;" d="M265.591,463.164c-0.171,0-0.341,0.006-0.509,0.017l-0.074-0.626
					c0.188-0.149,0.296-0.389,0.266-0.645c-0.046-0.393-0.402-0.674-0.795-0.628c-0.394,0.046-0.675,0.402-0.628,0.796
					c0.03,0.254,0.189,0.461,0.404,0.563l0.073,0.624c-0.714,0.116-1.402,0.332-2.06,0.646l0.327,0.685
					c0.935-0.447,1.941-0.674,2.995-0.674c0.497,0,0.993,0.053,1.476,0.158l0.16-0.741
					C266.692,463.222,266.142,463.164,265.591,463.164z"/>
				<path id="XMLID_344_" style="fill:#1D262D;" d="M272.194,465.711c0.331-0.04,0.566-0.341,0.525-0.672
					c-0.04-0.331-0.341-0.566-0.672-0.525c-0.31,0.038-0.535,0.304-0.53,0.608l-0.416,0.363c-0.418-0.43-0.89-0.813-1.407-1.14
					l-0.404,0.642c1.135,0.715,2.021,1.727,2.564,2.925l0.69-0.313c-0.251-0.554-0.567-1.071-0.942-1.545l0.402-0.351
					C272.065,465.715,272.128,465.719,272.194,465.711z"/>
				<path id="XMLID_343_" style="fill:#1D262D;" d="M265.044,473.372c-0.386,0.023-0.775,0.035-1.157,0.035
					c-0.88,0-1.733-0.061-2.479-0.18c-0.391-0.062-0.846-0.154-1.271-0.292c1.047,1.861,3.069,3.125,5.389,3.125
					c2.855,0,5.263-1.916,5.949-4.503c-0.682,0.449-1.505,0.825-2.458,1.122C267.838,473.047,266.463,473.287,265.044,473.372z"/>
				<path id="XMLID_339_" style="fill:#1D262D;" d="M265.591,464.68c-3.351,0-6.079,2.666-6.079,5.943
					c0,0.425,0.046,0.849,0.137,1.261c0.674,0.483,2.706,0.891,5.348,0.731c2.88-0.174,5.297-0.958,6.672-2.159
					c-0.005-0.194-0.021-0.39-0.045-0.581C271.244,466.914,268.65,464.68,265.591,464.68z M263.432,471.195
					c-1.02,0-1.85-0.83-1.85-1.85c0-1.021,0.83-1.851,1.85-1.851c1.02,0,1.85,0.83,1.85,1.851
					C265.282,470.365,264.452,471.195,263.432,471.195z M268.169,470.287c-0.75,0-1.36-0.61-1.36-1.36s0.61-1.36,1.36-1.36
					s1.36,0.61,1.36,1.36S268.919,470.287,268.169,470.287z"/>
			</g>
			<path id="XMLID_336_" style="fill:#1D262D;" d="M281.595,466.547c-0.295-0.116-0.806-0.31-1.383-0.238
				c-0.551,0.069-0.844,0.341-0.844,1.007v0.866h2.229v1.717h-2.229v5.455h-1.932v-5.455h-1.339v-1.717h1.339v-0.889
				c0-1.68,0.896-2.782,2.568-2.782c0.643,0,1.157,0.121,1.59,0.308V466.547z"/>
			<path id="XMLID_334_" style="fill:#1D262D;" d="M286.297,469.878c-0.177-0.029-0.357-0.046-0.525-0.046
				c-0.896,0-1.51,0.548-1.51,1.613v3.908h-1.933v-7.172h1.873v0.784c0.451-0.673,1.14-0.977,2.021-0.977
				c0.414,0,0.848,0.128,1.095,0.337L286.297,469.878z"/>
			<path id="XMLID_331_" style="fill:#1D262D;" d="M293.965,471.757c0,0.222-0.016,0.488-0.037,0.651h-5.085
				c0.207,1.036,0.933,1.487,1.843,1.487c0.622,0,1.295-0.252,1.813-0.689l1.133,1.243c-0.814,0.748-1.851,1.089-3.057,1.089
				c-2.198,0-3.724-1.496-3.724-3.753c0-2.258,1.48-3.797,3.627-3.797C292.543,467.99,293.958,469.522,293.965,471.757z
				 M288.851,471.091h3.175c-0.178-0.918-0.732-1.437-1.562-1.437C289.554,469.655,289.021,470.203,288.851,471.091z"/>
			<path id="XMLID_328_" style="fill:#1D262D;" d="M301.619,471.757c0,0.222-0.016,0.488-0.037,0.651h-5.085
				c0.207,1.036,0.933,1.487,1.843,1.487c0.622,0,1.296-0.252,1.814-0.689l1.133,1.243c-0.815,0.748-1.851,1.089-3.058,1.089
				c-2.198,0-3.723-1.496-3.723-3.753c0-2.258,1.48-3.797,3.627-3.797C300.197,467.99,301.611,469.522,301.619,471.757z
				 M296.504,471.091h3.175c-0.178-0.918-0.733-1.437-1.561-1.437C297.208,469.655,296.674,470.203,296.504,471.091z"/>
			<path id="XMLID_325_" style="fill:#1D262D;" d="M309.964,471.764c0,2.154-1.495,3.775-3.472,3.775
				c-0.962,0-1.644-0.378-2.109-0.933v3.708h-1.925v-10.133h1.888v0.792c0.467-0.585,1.154-0.984,2.139-0.984
				C308.469,467.99,309.964,469.611,309.964,471.764z M304.287,471.764c0,1.133,0.748,1.977,1.844,1.977
				c1.14,0,1.85-0.881,1.85-1.977c0-1.095-0.71-1.976-1.85-1.976C305.035,469.789,304.287,470.632,304.287,471.764z"/>
			<path id="XMLID_322_" style="fill:#1D262D;" d="M313.068,465.836c0,0.696-0.541,1.229-1.236,1.229
				c-0.696,0-1.229-0.533-1.229-1.229c0-0.695,0.532-1.243,1.229-1.243C312.527,464.592,313.068,465.14,313.068,465.836z
				 M312.808,475.354h-1.932v-7.172h1.932V475.354z"/>
			<path id="XMLID_320_" style="fill:#1D262D;" d="M316.032,470.736l2.702-2.554h2.368l-3.478,3.375l3.501,3.797h-2.376
				l-2.717-2.901v2.901H314.1v-10.658h1.932V470.736z"/>
		</g>
		<g id="XMLID_2_">
			<path id="XMLID_3_" style="fill:#1D262D;" d="M184.412,475.29v-1.055c-0.527,0.718-1.391,1.23-2.387,1.23
				c-1.846,0-3.149-1.406-3.149-3.706c0-2.256,1.289-3.721,3.149-3.721c0.952,0,1.816,0.469,2.387,1.245v-3.765h1.099v9.771H184.412
				z M184.412,473.371v-3.208c-0.395-0.615-1.245-1.143-2.124-1.143c-1.42,0-2.27,1.172-2.27,2.739c0,1.567,0.85,2.725,2.27,2.725
				C183.167,474.484,184.017,473.986,184.412,473.371z"/>
			<path id="XMLID_6_" style="fill:#1D262D;" d="M186.932,471.745c0-2.051,1.465-3.706,3.486-3.706c2.139,0,3.398,1.67,3.398,3.794
				v0.278h-5.727c0.088,1.333,1.025,2.446,2.549,2.446c0.806,0,1.626-0.322,2.182-0.894l0.527,0.718
				c-0.703,0.703-1.655,1.084-2.812,1.084C188.44,475.465,186.932,473.957,186.932,471.745z M190.403,468.947
				c-1.509,0-2.256,1.274-2.314,2.358h4.644C192.718,470.25,192.015,468.947,190.403,468.947z"/>
			<path id="XMLID_9_" style="fill:#1D262D;" d="M194.607,474.352l0.571-0.791c0.469,0.542,1.362,1.011,2.329,1.011
				c1.084,0,1.67-0.513,1.67-1.216c0-1.714-4.38-0.659-4.38-3.281c0-1.099,0.952-2.036,2.636-2.036c1.202,0,2.051,0.454,2.623,1.025
				l-0.513,0.762c-0.424-0.513-1.201-0.894-2.109-0.894c-0.966,0-1.567,0.483-1.567,1.113c0,1.553,4.379,0.527,4.379,3.281
				c0,1.187-0.952,2.139-2.783,2.139C196.306,475.465,195.325,475.114,194.607,474.352z"/>
			<path id="XMLID_11_" style="fill:#1D262D;" d="M201.477,466.471c0-0.41,0.337-0.747,0.732-0.747c0.41,0,0.747,0.337,0.747,0.747
				c0,0.41-0.337,0.732-0.747,0.732C201.814,467.204,201.477,466.881,201.477,466.471z M201.667,475.29v-7.075h1.099v7.075H201.667z
				"/>
			<path id="XMLID_14_" style="fill:#1D262D;" d="M204.582,477.106l0.556-0.82c0.586,0.703,1.289,0.967,2.3,0.967
				c1.172,0,2.271-0.571,2.271-2.124v-1.011c-0.513,0.718-1.377,1.26-2.373,1.26c-1.846,0-3.149-1.377-3.149-3.662
				c0-2.271,1.289-3.677,3.149-3.677c0.952,0,1.802,0.469,2.373,1.245v-1.069h1.099v6.87c0,2.344-1.641,3.076-3.369,3.076
				C206.237,478.161,205.416,477.925,204.582,477.106z M209.708,473.253v-3.091c-0.381-0.615-1.23-1.143-2.109-1.143
				c-1.421,0-2.27,1.128-2.27,2.695c0,1.553,0.849,2.695,2.27,2.695C208.478,474.411,209.328,473.869,209.708,473.253z"/>
			<path id="XMLID_17_" style="fill:#1D262D;" d="M217.413,475.29v-4.629c0-1.245-0.63-1.641-1.582-1.641
				c-0.864,0-1.685,0.527-2.094,1.099v5.171h-1.099v-7.075h1.099v1.025c0.497-0.586,1.464-1.201,2.519-1.201
				c1.479,0,2.256,0.747,2.256,2.285v4.966H217.413z"/>
			<path id="XMLID_19_" style="fill:#1D262D;" d="M219.932,471.745c0-2.051,1.465-3.706,3.486-3.706c2.139,0,3.398,1.67,3.398,3.794
				v0.278h-5.727c0.088,1.333,1.025,2.446,2.548,2.446c0.806,0,1.626-0.322,2.183-0.894l0.527,0.718
				c-0.703,0.703-1.655,1.084-2.813,1.084C221.441,475.465,219.932,473.957,219.932,471.745z M223.404,468.947
				c-1.509,0-2.256,1.274-2.314,2.358h4.643C225.718,470.25,225.015,468.947,223.404,468.947z"/>
			<path id="XMLID_22_" style="fill:#1D262D;" d="M233.35,475.29v-1.055c-0.527,0.718-1.392,1.23-2.388,1.23
				c-1.845,0-3.149-1.406-3.149-3.706c0-2.256,1.289-3.721,3.149-3.721c0.952,0,1.817,0.469,2.388,1.245v-3.765h1.098v9.771H233.35z
				 M233.35,473.371v-3.208c-0.396-0.615-1.245-1.143-2.124-1.143c-1.421,0-2.27,1.172-2.27,2.739c0,1.567,0.85,2.725,2.27,2.725
				C232.105,474.484,232.954,473.986,233.35,473.371z"/>
			<path id="XMLID_25_" style="fill:#1D262D;" d="M239.692,475.29v-9.771h1.099v3.765c0.571-0.776,1.421-1.245,2.388-1.245
				c1.845,0,3.149,1.465,3.149,3.721c0,2.3-1.304,3.706-3.149,3.706c-0.996,0-1.86-0.513-2.388-1.23v1.055H239.692z M242.9,474.484
				c1.436,0,2.285-1.157,2.285-2.725c0-1.567-0.85-2.739-2.285-2.739c-0.864,0-1.729,0.527-2.109,1.143v3.208
				C241.171,473.986,242.036,474.484,242.9,474.484z"/>
			<path id="XMLID_28_" style="fill:#1D262D;" d="M247.528,477.062c0.161,0.073,0.425,0.117,0.601,0.117
				c0.483,0,0.806-0.161,1.055-0.747l0.469-1.069l-2.959-7.148h1.187l2.358,5.801l2.344-5.801h1.2l-3.544,8.511
				c-0.425,1.024-1.143,1.421-2.08,1.436c-0.234,0-0.6-0.044-0.806-0.104L247.528,477.062z"/>
		</g>
	</g>
</g>
</svg>
